<svg xmlns="http://www.w3.org/2000/svg" width="48.621" height="48.621" viewBox="0 0 45.582651 45.5826"><path d="M27.24 23.193c-.85-.28-2.075-.22-3.676-.22H17.14v8.388h6.87c1.074 0 1.828-.114 2.263-.194.766-.137 1.405-.403 1.92-.723.513-.32.936-.804 1.268-1.415.332-.61.498-1.327.498-2.126 0-.937-.24-1.655-.72-2.347s-1.145-1.08-1.997-1.362zm-.882-3.834c.845-.252 1.482-.69 1.91-1.273.43-.583.644-1.324.644-2.204 0-.833-.2-1.573-.6-2.207-.4-.635-.97-.88-1.714-1.115-.743-.232-2.017-.162-3.822-.162H17.14v7.294h6.048c1.474 0 2.53-.14 3.17-.333zM45.583 6.06C45.583 2.714 42.868 0 39.52 0H6.062C2.714 0 0 2.714 0 6.062V39.52c0 3.348 2.714 6.063 6.062 6.063H39.52c3.348 0 6.063-2.715 6.063-6.063V6.062zM32.656 30.174c-.496 1.01-1.11 1.79-1.842 2.34-.73.548-1.648 1.013-2.75 1.293-1.103.28-2.454.47-4.053.47H13.858V9.118h10c1.92 0 3.458.222 4.618.73 1.16.508 2.067 1.275 2.725 2.332.656 1.055.985 2.153.985 3.306 0 1.074-.292 2.082-.874 3.03-.582.948-1.46 1.712-2.638 2.294 1.52.446 2.687 1.205 3.504 2.28.817 1.073 1.225 2.34 1.225 3.803 0 1.177-.246 2.27-.744 3.28z" fill="#5b4282"/></svg>