<svg xmlns="http://www.w3.org/2000/svg" viewBox="0 0 45.520749 45.519673"><path d="M44.66 20.732L24.787.858c-1.143-1.144-3-1.144-4.145 0l-4.126 4.128 5.235 5.235c1.216-.41 2.61-.134 3.58.835.975.976 1.248 2.383.828 3.604l5.045 5.045c1.22-.42 2.63-.15 3.604.827 1.363 1.362 1.363 3.57 0 4.933s-3.57 1.363-4.934 0c-1.025-1.026-1.28-2.53-.76-3.794l-4.704-4.704V29.35c.33.164.644.383.922.66 1.362 1.36 1.362 3.568 0 4.933-1.363 1.362-3.572 1.362-4.933 0-1.364-1.365-1.364-3.572 0-4.934.336-.338.725-.592 1.14-.762V16.75c-.415-.17-.804-.422-1.142-.76-1.032-1.033-1.28-2.547-.75-3.815l-5.162-5.162L.86 20.64c-1.146 1.146-1.146 3.002 0 4.147L20.733 44.66c1.145 1.146 3 1.146 4.147 0l19.782-19.78c1.145-1.146 1.145-3.003 0-4.148z" fill="#f34f29"/></svg>