<svg xmlns="http://www.w3.org/2000/svg" width="48.568" height="47.368" viewBox="0 0 45.532318 44.407143"><path d="M22.766 0C10.194 0 0 10.192 0 22.766c0 10.06 6.523 18.592 15.57 21.603 1.136.21 1.553-.495 1.553-1.096 0-.543-.02-2.337-.03-4.24-6.334 1.378-7.67-2.685-7.67-2.685-1.036-2.633-2.528-3.332-2.528-3.332-2.066-1.413.155-1.383.155-1.383 2.286.16 3.49 2.346 3.49 2.346 2.03 3.48 5.326 2.474 6.625 1.893.205-1.47.795-2.476 1.446-3.045C13.555 32.254 8.24 30.3 8.24 21.578c0-2.486.89-4.516 2.346-6.11-.237-.574-1.016-2.89.22-6.025 0 0 1.91-.613 6.262 2.333 1.817-.505 3.765-.76 5.7-.768 1.934.01 3.883.262 5.703.767 4.344-2.946 6.253-2.334 6.253-2.334 1.24 3.136.46 5.452.223 6.025 1.46 1.595 2.343 3.626 2.343 6.11 0 8.745-5.326 10.67-10.396 11.234.818.706 1.545 2.092 1.545 4.215 0 3.046-.027 5.498-.027 6.248 0 .605.41 1.315 1.563 1.092 9.04-3.014 15.556-11.544 15.556-21.6C45.532 10.193 35.338 0 22.766 0z" clip-rule="evenodd" fill-rule="evenodd"/><path d="M8.623 32.686c-.05.113-.23.147-.39.07-.167-.073-.26-.228-.206-.34.05-.118.228-.15.392-.072.165.074.26.23.202.343zm.922 1.03c-.11.1-.32.053-.465-.106-.15-.158-.177-.37-.067-.473.114-.1.32-.053.468.105.15.16.18.372.065.474zm.898 1.31c-.14.096-.368.006-.51-.197-.14-.204-.14-.447.004-.544.14-.097.366-.01.51.19.138.206.138.45-.004.548zm1.23 1.266c-.126.138-.392.1-.586-.087-.2-.183-.254-.445-.13-.582.127-.138.395-.1.59.087.2.183.26.445.126.58zm1.695.736c-.055.178-.31.26-.57.183-.256-.077-.425-.286-.372-.466.052-.18.31-.264.57-.183.258.08.426.286.373.468zm1.864.135c.006.19-.212.344-.483.347-.273.007-.494-.145-.496-.33 0-.19.215-.343.486-.348.27-.005.493.146.493.33zm1.733-.294c.033.182-.155.37-.424.42-.263.05-.508-.065-.542-.246-.032-.188.16-.376.423-.425.27-.047.51.064.545.25zm0 0"/></svg>