<svg xmlns="http://www.w3.org/2000/svg" width="36.117" height="48.505" viewBox="0 0 33.859449 45.473243"><g clip-rule="evenodd" fill-rule="evenodd"><path d="M28.63 31.896c1.32-.98 1.995-2.222 2.31-3.76 1.528 1.513 2.066 3.29 1.94 5.3-.17 2.722-1.422 4.707-4.004 5.773-.202.083-.384.303-.496.505-1.21 2.193-2.99 3.58-5.5 3.978-.21.033-.42.152-.6.275-2.985 2.013-7.728 2.006-10.727-.014-.197-.133-.438-.232-.672-.272-2.256-.39-3.97-1.58-5.13-3.533-.337-.57-.73-.952-1.338-1.23-4.355-1.988-4.28-8.43-1.556-10.676.266.656.47 1.346.814 1.958.347.618.83 1.16 1.253 1.734l.207-.056c.072-.72.167-1.44.21-2.16.058-1.017.102-2.036.105-3.054.004-1.243-.46-2.21-1.635-2.815-.86-.442-1.717-.932-2.464-1.537-1.828-1.48-1.782-3.476.066-4.907.444-.343.707-.735.76-1.29.108-1.17.292-2.337-.546-3.368-.233-.287-.35-.684-.46-1.048-.542-1.77.33-3.183 2.165-3.47.53-.084.818-.22.88-.836.114-1.098-.122-1.85-1.133-2.38-.805-.42-1.702-.666-2.59-1.002 1.038-1.492 2.582-2.172 4.39-2.28 2.394-.146 4.27.946 5.865 2.62.266.28.487.6.766.862.138.13.366.238.542.223.092-.007.214-.298.23-.467.12-1.405.753-2.54 1.79-3.463.176-.157.4-.262.605-.394l.508 2.38.22-.003C15.77 1.584 17.07.613 18.774 0c-.037.57-.12 1.105-.09 1.632.032.506.18 1.005.296 1.603.968-.675 1.812-1.377 2.916-1.348-.237.905-.496 1.787-.693 2.68-.102.46.025.896.61.884.213-.004.477-.17.625-.343 1.26-1.463 2.654-2.714 4.596-3.196 2.477-.613 4.97.218 6.38 2.19-.267.066-.52.107-.757.19-.614.216-1.265.374-1.824.692-1.182.674-1.37 1.31-1.088 2.822.026.136.243.28.4.338.252.092.534.094.793.17 1.51.445 2.23 1.696 1.8 3.205-.153.536-.394 1.064-.69 1.536-.768 1.222-.483 2.482-.168 3.728.07.277.436.496.697.704 1.592 1.27 1.745 3.204.217 4.558-.85.752-1.882 1.318-2.88 1.884-.914.52-1.453 1.28-1.456 2.282-.008 1.896.108 3.79.174 5.687zm-6.58-3.26l-.008.004c-.005.042.01.077.04.105l.117.276c.407 1.074.8 2.154 1.23 3.218.512 1.27.157 1.224 1.783 1.077l1.344-.246c.703-.014.886-.365.83-1.05-.133-1.663-.182-3.334-.276-5.002-.12-2.126.712-3.643 2.704-4.545.724-.327 1.412-.83 1.974-1.396.854-.86.61-2.166-.432-2.765l-.09.737c-.79-1.24-1.02-2.498-1.227-3.764l-.023-.676c.033-.04.036-.082.01-.127l.323-2.448.125.02.182.765c.26-.457.476-.773.632-1.116.607-1.347.06-2.248-1.436-2.228-.892.01-1.802.143-2.668.363-2.26.573-4.113 1.923-5.958 3.273-.184.135-.377.26-.566.387l-.088-.102.958-1.37.235-.276c.033-.02.052-.05.06-.088l3.58-2.868-2.177-1.162-.03.005-.158-.117c-2.513-1.18-5.186-1.42-7.882-1.098-1.48.176-2.913.724-4.367 1.105-.856.332-1.67.73-2.225 1.34l3.577 2.91v-.007l.127.178 1.008 1.453c-1.137-.637-2.163-1.363-3.218-2.043C8.427 10.307 6.654 9.602 4.7 9.465c-.828-.058-1.807-.157-2.237.73-.445.917.162 1.728.673 2.482.02.028.08.03.145.05l.084-.714c.165.35.267.697.307 1.05.08.694.126 1.39.186 2.087-.135.66-.223 1.333-.418 1.975-.198.654-.502 1.277-.76 1.914l-.146-.07-.042-.654c-1.177.717-1.244 2.187-.114 3.09.684.543 1.464.98 2.24 1.39 1.46.773 2.125 2.008 2.102 3.597-.026 1.83-.137 3.657-.242 5.483-.057.984-.086.982.807 1.19l1.474.253c.468-.04 1.073.394 1.358-.302.562-1.373 1.08-2.765 1.616-4.15.024-.032.035-.068.034-.11l.137-.29.546-1.04.163.057c-.245 2.44-1.104 4.74-1.837 7.133 4.084 0 8.057 0 12.03-.003.063 0 .127-.03.17-.04l-1.986-7.532.223-.068.74 1.494.098.164zm4.653 11.252c-1.5-.074-2.02.367-2.376 2.06.977-.52 1.833-1.104 2.366-2.07l.02-.05-.01.06zm4.358-8.69c-1.285 2.634-3.72 3.235-6.257 3.525l1.21 2.307-.187 1.513c2.03-.126 3.813-.736 4.96-2.485 1.068-1.63 1.02-3.43.454-5.265l-.18.405zM2.67 30.99c-.008-.042-.01-.118-.024-.122-.046-.01-.14.005-.143.02-.096.75-.27 1.505-.258 2.257.044 2.622 1.46 4.413 3.992 5.108.582.16 1.193.213 1.815.32l-.23-1.543 1.25-2.32c-2.686-.252-5.124-.99-6.402-3.72zm21.036 9.16l.145-.267c.217-.493.47-.974.642-1.482.558-1.635-.07-2.526-1.802-2.598-.114-.004-.226-.006-.34-.006-3.613 0-7.226-.004-10.84.005-.357.002-.722.044-1.07.125-1.073.252-1.494.885-1.21 1.944.183.69.51 1.34.77 2.01l.138.25.1.168c.59.76 1.06 1.666 1.786 2.254 2.39 1.934 5.125 2.094 7.935 1.114 1.733-.605 2.98-1.827 3.746-3.516zm7.108-36.59c-2.685-1.175-5.45-.147-7.043 2.617l.937.454c1.225-1.82 2.923-2.948 5.037-2.732.3.03.625-.19 1.07-.34zm-27.596.113c.4.076.8.22 1.197.214 1.2-.016 2.293.27 3.2 1.07.566.5 1.068 1.073 1.627 1.642l.853-.44C8.658 3.523 5.697 2.364 3.218 3.674zm25.41 1.305c-.113.017-.306.03-.49.08-.952.255-1.533.925-1.882 1.796-.108.266-.167.7-.024.886.296.384.555.91 1.292.66.493-.165.623-.45.692-.863.136-.814.264-1.63.413-2.56zm-23.42.037c.11.624.217 1.213.32 1.803.053.31.096.62.154.93.123.644.743.814 1.13.684.405-.136.915-.66.954-1.06.106-1.075-1.416-2.364-2.557-2.358zm1.913 34.878c.598.886 1.388 1.567 2.544 2.087-.626-1.144-.82-2.517-2.543-2.087z" fill="#493310"/><path d="M3.857 15.152c-.06-.696-.105-1.393-.185-2.087-.04-.353-.142-.7-.307-1.05l-.083.716c-.066-.022-.125-.023-.144-.05-.51-.755-1.118-1.566-.673-2.484.43-.887 1.408-.788 2.236-.73 1.956.138 3.73.842 5.363 1.895 1.055.68 2.08 1.407 3.218 2.044l-1.006-1.453-.13-.175.003.006c-.222-.527-.406-1.074-.674-1.577-.447-.842-1.083-1.62-.678-2.672 1.454-.38 2.887-.927 4.366-1.104 2.697-.322 5.37-.08 7.883 1.098l.158.116.03-.004c.032.928-.324 1.718-.79 2.5-.28.464-.414 1.015-.613 1.528-.006.038-.026.068-.06.09l-.234.274-.958 1.37.088.103c.19-.128.382-.252.566-.387 1.844-1.35 3.696-2.7 5.957-3.274.866-.22 1.775-.353 2.667-.364 1.497-.02 2.045.88 1.435 2.228-.156.343-.37.66-.632 1.116l-.183-.767-.125-.018-.323 2.447-.03.038.02.09.02.676c-.07.192-.204.384-.205.577-.014 1.565.125 3.095 1.326 4.472-.952.483-1.794.95-2.667 1.346-.79.36-1.614.68-1.898 1.593-.237.757-.372 1.546-.55 2.314l-.44-1.22c-.13 2.976.007 5.89.954 8.702l-1.344.246c-.898-1.366-1.793-2.733-2.698-4.093-.064-.095-.21-.136-.316-.202l-.115-.275.058-.082-.098-.023.008-.005-.1-.165-.74-1.494-.223.068 1.986 7.53c-.042.012-.107.043-.17.043-3.972.002-7.945.002-12.03.002.732-2.393 1.592-4.693 1.836-7.134l-.164-.057-.546 1.042-.136.29c0 .04-.01.077-.033.11-.132.106-.3.187-.39.32-.663.982-1.318 1.97-1.956 2.968-.236.37-.42.773-.628 1.16l-1.474-.25c.992-2.807 1.114-5.714.983-8.655L7.8 25.632c-.1-1.99-.693-3.49-2.794-4.104-.8-.234-1.498-.826-2.075-1.158.362-.914.77-1.592.877-2.315.142-.95.045-1.934.05-2.903zm15.23.15l.137-.14.333-.387c-.864.085-1.704.235-2.544.23-.847-.004-1.694-.162-2.54-.252l-.177-.05.177.05.27.543c1.51 1.716 2.77 1.75 4.29.115.028-.03.043-.076.064-.115l-.01.008zm-8.418 9.093l1.618-1c.363-.715.797-1.405 1.06-2.155.124-.36.192-.555.582-.658.857-.225 1.296-.803 1.275-1.548l-.858.105c-.918-.522-1.613-1.246-2.177-2.146-.314-.5-.803-.91-1.266-1.297-.987-.823-2.223-1.01-3.43-1.037-.743-.015-1.492.338-2.238.525-.023.022-.048.025-.075.01l-.196.083-.038.055c-.004.018.006.054.02.06l.853.295c-.72.904-.63 1.76-.08 2.7l.285-1.005.137.013.07.71.09.315.054.212c-.075 2.277 1.96 3.916 4.987 3.86L10.67 24.4l-.03.055.03-.057zm12.497 0l.053.033-.056-.03-.65-1.927c3.53.35 4.976-2.05 5.103-4.24l.14-.827.114.005.266.984c.533-.948.67-1.81-.076-2.686l.886-.348-.37-.144c-.18-.11-.352-.298-.54-.315-.812-.078-1.635-.178-2.446-.132-1.61.09-2.937.79-3.845 2.15-.604.9-1.255 1.732-2.256 2.22l-.93-.105c.15.883.653 1.342 1.427 1.587.183.058.368.255.458.436.387.77.74 1.558 1.103 2.34l1.62 1z" fill="#f5a900"/><path d="M10 39.88c-.26-.668-.588-1.32-.772-2.01-.283-1.06.14-1.693 1.212-1.945.347-.082.712-.123 1.07-.124 3.614-.008 7.227-.004 10.84-.004.113 0 .226.002.338.007 1.732.07 2.36.963 1.803 2.6-.172.507-.424.987-.64 1.48l-.145.267c-.468.304-.923.63-1.404.907-1.213.697-2.534 1.012-3.918 1.178-1.894.228-3.742.084-5.514-.595-.914-.35-1.755-.89-2.63-1.34l-.102-.17-.136-.248zm13.015-1.093l.15-.267c.413-1.066.227-1.355-.9-1.37-.836-.008-1.674-.015-2.51.004-.813.017-.993.28-.776 1.057.096.408.138.84.304 1.215.42.958 1.184 1.493 1.86 1.38.918-.153 1.74-1.04 1.875-2.023l-.005.006zm-12.198 0l-.003-.004c.154 1.02.77 1.647 1.717 1.954.67.216 1.257-.086 1.582-.607.354-.57.512-1.26.756-1.9.232-.795.068-1.05-.74-1.073-.723-.022-1.446-.01-2.17-.005-1.552.012-1.582.05-1.283 1.495l.14.14z" fill="#f5a800"/><path d="M3.857 15.152c-.005.97.092 1.953-.05 2.902-.106.723-.515 1.4-.875 2.314.578.333 1.274.925 2.075 1.158 2.1.614 2.693 2.116 2.793 4.105l.465-1.216c.13 2.94.008 5.848-.982 8.655-.894-.21-.864-.208-.808-1.19.106-1.828.216-3.656.242-5.485.023-1.588-.64-2.824-2.1-3.596-.778-.41-1.558-.85-2.24-1.393-1.132-.902-1.064-2.372.113-3.09l.042.657.147.068c.256-.637.56-1.26.76-1.915.193-.642.282-1.315.417-1.974zm22.7 17.918c-.947-2.814-1.083-5.727-.955-8.703l.44 1.22c.178-.768.314-1.557.55-2.313.284-.912 1.107-1.234 1.9-1.593.873-.395 1.715-.86 2.667-1.345-1.202-1.376-1.34-2.907-1.328-4.472.002-.193.135-.385.206-.578.208 1.267.437 2.525 1.23 3.764l.088-.738c1.043.598 1.286 1.905.432 2.765-.562.565-1.25 1.068-1.974 1.396-1.992.902-2.824 2.42-2.704 4.545.094 1.667.144 3.338.278 5.002.054.685-.13 1.036-.832 1.05zm4.828-13.936l-.02.035.03.003-.01-.04z" fill="#e08700"/><path d="M10.24 40.298c.874.452 1.716.99 2.63 1.34 1.77.68 3.62.824 5.512.596 1.385-.165 2.706-.48 3.92-1.177.482-.277.937-.603 1.404-.906-.765 1.69-2.013 2.91-3.746 3.516-2.81.98-5.547.82-7.936-1.114-.727-.588-1.197-1.494-1.785-2.254z" fill="#e08600"/><path d="M2.67 30.99c1.278 2.73 3.716 3.47 6.4 3.72l-1.247 2.32c-3.21-.262-5.28-2.687-5.153-6.04zm23.344 6.04l-1.21-2.308c2.535-.29 4.97-.89 6.257-3.525.04.167.122.335.116.5-.095 2.76-1.987 5.083-5.162 5.333z" fill="#fff"/><path d="M2.67 30.99c-.128 3.353 1.94 5.778 5.153 6.04l.23 1.544c-.623-.108-1.233-.162-1.815-.32-2.532-.696-3.948-2.487-3.993-5.11-.013-.75.162-1.505.26-2.257 0-.015.095-.03.14-.02.017.005.018.08.025.124zm23.344 6.04c3.175-.25 5.067-2.573 5.162-5.332.006-.166-.075-.334-.115-.5l.18-.405c.567 1.834.614 3.636-.454 5.265-1.147 1.75-2.93 2.36-4.96 2.485l.187-1.513z" fill="#c7c6c6"/><path d="M30.814 3.56c-.446.148-.77.37-1.07.338-2.114-.217-3.812.912-5.038 2.733l-.935-.453c1.595-2.765 4.36-3.792 7.044-2.62zm-27.596.113c2.478-1.31 5.44-.15 6.877 2.488l-.853.438c-.56-.568-1.063-1.14-1.63-1.64-.905-.8-1.997-1.087-3.198-1.07-.398.005-.797-.14-1.196-.214z" fill="#f0a500"/><path d="M28.63 4.978c-.15.93-.278 1.745-.414 2.558-.068.413-.198.7-.692.865-.735.25-.996-.276-1.292-.66-.142-.185-.084-.62.024-.886.35-.87.93-1.54 1.882-1.796.184-.05.378-.062.49-.08zm-23.42.036c1.14-.006 2.662 1.283 2.556 2.36-.04.397-.55.923-.955 1.06-.385.128-1.005-.042-1.128-.686-.058-.31-.1-.62-.155-.93-.103-.59-.207-1.18-.318-1.803z" fill="#de8500"/><path d="M10.794 7.53c-.404 1.053.232 1.832.68 2.674.266.503.45 1.05.672 1.577L8.568 8.874c.555-.612 1.37-1.01 2.226-1.342z" fill="#e08600"/><path d="M21.826 11.664c.2-.513.333-1.064.612-1.53.468-.78.823-1.57.79-2.498l2.178 1.16-3.58 2.868zM22.2 29.02c.105.067.25.108.314.203.905 1.36 1.8 2.727 2.698 4.093-1.625.147-1.27.194-1.783-1.077-.43-1.066-.823-2.146-1.23-3.22zm-13.444 4.3c.21-.388.393-.79.63-1.162.636-.997 1.292-1.985 1.953-2.966.09-.135.26-.216.39-.32-.535 1.382-1.053 2.774-1.615 4.147-.285.695-.89.262-1.358.3z" fill="#de8600"/><path d="M7.12 39.893c1.723-.43 1.918.943 2.544 2.087-1.156-.52-1.947-1.2-2.543-2.087zm19.573-.014c-.533.964-1.39 1.548-2.366 2.067.355-1.692.877-2.133 2.376-2.06l-.01-.008zm.01.008l.01-.06-.02.052.01.008z" fill="#eca200"/><path d="M22.042 28.64l.1.023-.06.082c-.032-.027-.045-.063-.04-.105z" fill="#de8600"/><path d="M30.017 14.61l-.02-.09.03-.037c.026.045.022.087-.01.128z" fill="#e08700"/><path d="M21.548 23.396c-.364-.78-.716-1.57-1.103-2.34-.09-.18-.276-.378-.46-.436-.772-.245-1.276-.704-1.424-1.587l.928.105c.175.012.352.054.522.03.81-.11 1.365-.622 1.905-1.19 1.807-1.907 3.927-3.084 6.663-2.764l.368.144-.885.35c.747.874.61 1.737.077 2.685l-.265-.985-.115-.004-.14.827c-.388.915-.758 1.837-1.707 2.35-1.38.745-2.768 1.07-4.164.08-.597.907-.245 1.832-.2 2.737zm4.57-5.125v-1.7c-1.43.843-2.653 1.662-3.632 2.8l-.405.487c1.37 1.025 4.042.35 4.04-1.586z" fill="#49330e"/><path d="M6.356 18.63l-.054-.21-.09-.314-.07-.71-.138-.013-.285 1.004c-.55-.938-.64-1.796.078-2.7-.316-.11-.586-.2-.854-.297-.012-.004-.022-.04-.02-.058l.04-.055.196-.084c.027.017.052.014.075-.008 1.024.112 2.08.105 3.066.365 1.548.408 2.743 1.433 3.812 2.603.594.65 1.277 1.138 2.234.985l.858-.105c.02.746-.42 1.324-1.275 1.548-.39.103-.46.3-.584.66-.263.75-.696 1.44-1.06 2.153.09-.915.402-1.847-.2-2.747-.727.544-1.52.743-2.38.59-1.565-.283-2.724-1.106-3.352-2.605zm5.003.727c-.98-1.135-2.2-1.955-3.63-2.788v1.7c.023 1.977 2.724 2.604 4.017 1.604-.04-.07-.07-.153-.123-.22-.08-.104-.176-.2-.265-.297z" fill="#49330f"/><path d="M21.548 23.396c-.046-.905-.398-1.83.198-2.736 1.397.99 2.783.665 4.164-.08.948-.513 1.32-1.436 1.708-2.35-.127 2.19-1.575 4.59-5.102 4.24l.65 1.927v-.002l-1.618-.998zM6.356 18.632c.627 1.498 1.786 2.322 3.352 2.603.86.155 1.652-.045 2.38-.59.6.9.29 1.833.2 2.75l-1.62 1 .002.002.673-1.906c-3.026.057-5.062-1.582-4.988-3.86z" fill="#e08700"/><path d="M14.347 19.138c-.957.153-1.64-.334-2.234-.985-1.07-1.17-2.264-2.195-3.81-2.603-.987-.26-2.043-.253-3.068-.365.747-.188 1.497-.54 2.238-.526 1.207.025 2.443.212 3.43 1.036.464.387.952.796 1.266 1.297.564.9 1.26 1.624 2.177 2.145z" fill="#de8600"/><path d="M28.578 15.214c-2.736-.32-4.856.857-6.664 2.763-.54.57-1.093 1.083-1.904 1.192-.17.023-.348-.02-.522-.032 1-.488 1.652-1.32 2.256-2.22.908-1.36 2.235-2.062 3.846-2.15.81-.046 1.632.054 2.446.13.19.02.36.206.542.316zm-13.835.082l-.27-.545v.002c.846.09 1.692.25 2.54.254.84.004 1.68-.146 2.543-.23l-.332.385-.136.14.01-.006c-.85.142-1.694.375-2.545.397-.6.017-1.207-.252-1.81-.394z" fill="#df8600"/><path d="M14.743 15.296c.603.142 1.21.41 1.81.395.85-.02 1.696-.253 2.544-.396-.022.04-.036.085-.065.116-1.52 1.636-2.78 1.6-4.29-.114z" fill="#52380b"/><path d="M18.98 38.21c-.218-.776-.037-1.04.774-1.056.838-.02 1.675-.01 2.51-.003 1.13.015 1.314.304.9 1.37l-.15.267.004-.005c-.195.212-.386.43-.588.634-.918.932-1.926.872-2.72-.17-.257-.334-.49-.69-.732-1.035z" fill="#47310d"/><path d="M10.675 38.646c-.3-1.445-.27-1.482 1.283-1.494.724-.006 1.447-.018 2.17.003.808.025.972.28.74 1.075-.274.385-.535.78-.826 1.154-.68.87-1.648.926-2.46.15-.26-.246-.512-.5-.768-.75v.003l-.138-.14z" fill="#47310e"/><path d="M10.814 38.783c.256.25.508.505.767.752.814.775 1.78.72 2.463-.15.29-.373.55-.77.825-1.155-.244.64-.4 1.33-.756 1.9-.325.52-.913.823-1.58.607-.95-.307-1.565-.934-1.718-1.954z" fill="#dc8400"/><path d="M18.98 38.21c.24.347.474.702.73 1.038.794 1.04 1.802 1.1 2.72.17.203-.207.393-.424.59-.636-.135.982-.96 1.87-1.877 2.023-.675.113-1.438-.422-1.86-1.38-.165-.376-.206-.807-.304-1.214z" fill="#de8500"/><path d="M31.385 19.134l.01.04-.03-.005z" fill="#493310"/><path d="M22.486 19.37c.98-1.138 2.202-1.957 3.633-2.8v1.702c-.592.752-1.26 1.424-2.287 1.423-.45 0-.9-.21-1.348-.326z" fill="#fff"/><path d="M22.486 19.37c.45.114.898.324 1.347.325 1.028 0 1.695-.67 2.285-1.424.003 1.938-2.67 2.612-4.036 1.587l.403-.488z" fill="#c5c4c3"/><path d="M7.73 18.27v-1.702c1.43.834 2.65 1.654 3.63 2.788-.565.51-1.71.525-2.538-.043-.41-.28-.73-.692-1.09-1.044z" fill="#fff"/><path d="M7.73 18.27c.36.35.682.762 1.092 1.044.828.567 1.973.55 2.537.042.09.1.183.193.264.298.05.066.084.148.123.22-1.293 1-3.994.372-4.017-1.606z" fill="#c5c4c3"/></g></svg>