<svg xmlns:rdf="http://www.w3.org/1999/02/22-rdf-syntax-ns#" xmlns="http://www.w3.org/2000/svg" xmlns:cc="http://creativecommons.org/ns#" xmlns:dc="http://purl.org/dc/elements/1.1/" viewBox="0 0 608.89825 589.2129"><g transform="translate(857.6 336.54)"><path d="M-842.7 83s-37-95.6 39.8-181.6" stroke="#000" stroke-width="2.4" fill="none"/><rect rx="0" ry="0" height="427.1" width="427.1" y="-235.5" x="-807.9" fill="#53a5d7"/><rect rx="0" ry="0" height="417.1" width="417.1" y="-230.5" x="-802.9" fill="#53a5d7"/><g stroke="#fff" fill="none"><path d="M-803-230.5h417.3M-803-215h417.3M-803-199.6h417.3" stroke-width=".7"/><path d="M-803-184h417.3" stroke-width="2"/><path d="M-803-168.7h417.3M-803-153.2h417.3" stroke-width=".7"/><path d="M-803-137.8h417.3" stroke-width="2"/><path d="M-803-122.3h417.3M-803-107h417.3" stroke-width=".7"/><path d="M-803-91.4h417.3" stroke-width="2"/><path d="M-803-76h417.3M-803-60.5h417.3" stroke-width=".7"/><path d="M-803-45h417.3" stroke-width="2"/><path d="M-803-29.6h417.3M-803-14.2h417.3" stroke-width=".7"/><path d="M-803 1.3h417.3" stroke-width="2"/><path d="M-803 16.7h417.3M-803 32.2h417.3" stroke-width=".7"/><path d="M-803 47.6h417.3" stroke-width="2"/><path d="M-803 63h417.3" stroke-width=".7"/><path d="M-803 94h417.3" stroke-width="2"/><path d="M-803 186.7h417.3M-803 109.4h417.3M-803 125h417.3" stroke-width=".7"/><path d="M-803 140.3h417.3" stroke-width="2"/><path d="M-803 155.8h417.3M-803 171.3h417.3M-803 78.5h417.3m0-309v417.2M-401-230.5v417.2m-15.6-417.2v417.2" stroke-width=".7"/><path d="M-432-230.5v417.2" stroke-width="2"/><path d="M-447.5-230.5v417.2M-463-230.5v417.2" stroke-width=".7"/><path d="M-478.4-230.5v417.2" stroke-width="2"/><path d="M-494-230.5v417.2m-15.3-417.2v417.2" stroke-width=".7"/><path d="M-524.8-230.5v417.2" stroke-width="2"/><path d="M-540.2-230.5v417.2m-15.5-417.2v417.2" stroke-width=".7"/><path d="M-571-230.5v417.2" stroke-width="2"/><path d="M-586.6-230.5v417.2M-602-230.5v417.2" stroke-width=".7"/><path d="M-617.5-230.5v417.2" stroke-width="2"/><path d="M-633-230.5v417.2m-15.4-417.2v417.2" stroke-width=".7"/><path d="M-663.8-230.5v417.2" stroke-width="2"/><path d="M-679.3-230.5v417.2" stroke-width=".7"/><path d="M-710.2-230.5v417.2" stroke-width="2"/></g><path d="M-803-230.5v417.2m77.4-417.2v417.2M-741-230.5v417.2" stroke="#fff" stroke-width=".7" fill="#53a5d7"/><g fill="none" stroke="#fff"><path d="M-756.5-230.5v417.2" stroke-width="2"/><path d="M-772-230.5v417.2m-15.4-417.2v417.2m92.7-417.2v417.2" stroke-width=".7"/><g word-spacing="0" letter-spacing="0" font-family="sans-serif"><text font-size="152.2" transform="scale(1.041 .96057)" y="-111.9" x="-757.2" stroke-width="3"><tspan y="-111.9" x="-757.2">W</tspan></text><text font-size="144.9" y="31" x="-763.4" stroke-width="2.8"><tspan y="31" x="-763.4">E</tspan></text><text font-size="144.4" y="169.3" x="-769" stroke-width="2.8"><tspan y="169.3" x="-769">B</tspan></text></g></g><g stroke-width=".8"><g stroke="#fff" fill="none"><path stroke-width="2.9" d="M-472 124.6l-8.3-16L-560-47l-.4-38.5 31 22.8 79.8 155.5 8.2 16c6.6 12.7-4.6 19.7-8.3 21.6-3.7 2-15.8 7-22.4-5.8z"/><path stroke-width="2.6" d="M-560.2-47s4.6 2.2 5-2.6c8.2 2.8 10.4-5.4 10.4-5.4 8 2.8 10.4-5.2 10.4-5.2s4.5 2.2 5-2.6"/><path stroke-width="2.5" d="M-478.3 112l30.5-15.7m-35.5 6l30.6-15.7"/></g><path fill-rule="evenodd" fill="#fff" d="M-560.4-85.6v15.4l12-6.2z"/></g><g stroke="#ffd42a"><path d="M-562.3-36v171" stroke-dashoffset="24.7" stroke-dasharray="11.4, 11.4" stroke-width="3.8" fill="none"/><path stroke-linejoin="round" d="M-557.5 101.6c15.3 0 27.6 12.4 27.6 27.6" stroke-linecap="round" stroke-width="2.9" fill="none"/><path d="M-477.2 135h-85" fill-rule="evenodd" stroke-dashoffset="24.7" stroke-dasharray="11.4, 11.4" stroke-width="3.8" fill="#f60"/></g><path fill="#ffd42a" d="M-562-43.2l8.3 16.3-8.2-3-8 3z"/><path fill="#ffd42a" d="M-562-43.2l8.3 16.3-8.2-3-8 3z"/><path d="M-628.7-199.7l-23.5 87.6" stroke-dashoffset="24.7" stroke="#ffd42a" stroke-dasharray="11.39999988, 11.39999988" stroke-width="3.8" fill="none"/><path fill="#ffd42a" d="M-624.5-214.5l3.6 17.8-7-5-8.6.7zm-29.5 108l-3-18 7 5.2 8.6-.4z"/><path d="M-687 40.5h-60" stroke-dashoffset="24.7" stroke="#ffd42a" stroke-dasharray="11.39999987, 11.39999987" stroke-width="3.8" fill="none"/><path fill="#ffd42a" d="M-679.8 41l-16.3 8 3-8-3-8.3zm-69.8 0l16.3-8.3-3 8.2 3 8z"/><path d="M-672 109.4s20.5 10.5 16 35-26 28.5-26 28.5" stroke="#ffd42a" stroke-dasharray="11.39999986, 11.39999986" stroke-width="3.8" fill="none"/><path fill="#ffd42a" d="M-680.4 104.5l18.2.5-6.6 5.8-1.2 8.6zm-10.4 69.2l14.3-11-1.3 8.5 4.5 7.4z"/><text font-size="55.6" font-family="sans-serif" letter-spacing="0" transform="scale(.9989 1.0011)" word-spacing="0" stroke="#fff" y="-95.5" x="-617.3" stroke-width="1.8" fill="#fff"><tspan y="-95.5" x="-617.3">Projects</tspan></text><path fill="#ffd42a" d="M-468.5 134.2l-15.8 9 2.5-8.3-3.4-8z"/><path d="M-764.8-292c-3.6-1-6.5-2-6.5-2l-7 24.5v.3L-855-121l31.2 8.6 24.6 7c3.5 1 7.2-1 8.3-4.5l42-144 261 75.4c3.5 1 7.2-1 8.2-4.6l5.8-25.4 8.4-31.6z" fill="gray"/><path fill-rule="evenodd" fill="#4d4d4d" d="M-307.4-58c-7.5-.3-15 1.3-22.3 4.6-9.2 4.3-16.5 11-21.6 19l-95 21.7-6.8-14.8c-2.3-4.5-6.8-7-10.3-5.2-3.5 1.6-4.7 6.6-2.5 11l5.6 12.2-123 28 128.4-16.2 22.4 48-13.6 6.4 10 21.5 13.6-6.3 12.6 27-95 88 100.5-76.3 5.4 11.6c2 4.6 6.7 7 10 5.3 3.7-1.7 4.8-6.6 2.7-11L-393 102l77-58.3c9.8 1.4 20 .2 29.3-4.2 23.7-11 35-38 27-62.3l5.5-2.5c4.6-2 6.6-6 5-9.2s-5.7-4.3-10.2-2.2l-5.3 2.5c-9.4-15-26-24-43-24zm-.2 20.6c11.3 0 22 6.6 27.2 17.6 7 15.4.6 33.4-14.8 40.5-15.3 7.2-33.3.6-40.4-14.7-7.2-15.4-.7-33.4 14.7-40.5 4.5-2 9-3 13.5-3zm-51.6 27.7c-.5 8 1 16.6 4.7 24.5 3.6 7.7 9 14.2 15.4 19L-399 89l-10.8-23 13.6-6.3-10-21.5-13.6 6.3-20.5-44 80.8-10.2z"/><path fill="#fc0" d="M-787.6-336l-6.5-1.7-15.3 52.3v.3L-852.8-135c-1 3.6-2 6.4-2 6.4L-802-113c3.5 1 7.2-1 8.3-4.7L-752-262l261 75.5c3.5 1 7.2-1 8.2-4.6l15.2-52.6-6.5-1.8z"/><g stroke="#000" fill="none"><path d="M-775-332.2l-5.3 18.6" stroke-width="6.3"/><path d="M-760.2-328l-3 11m17.7-6.7l-3 11m17.7-6.8l-3 11" stroke-width="3.1"/><path d="M-716-315.2l-5.5 18.6" stroke-width="6.3"/><path d="M-701.4-311l-3 11m17.7-6.7l-3 10.8m17.7-6.5l-3.2 10.8" stroke-width="3.1"/><path d="M-657.3-298.2l-5.4 18.6" stroke-width="6.3"/><path d="M-642.6-294l-3.2 11m17.8-6.8l-3 11m17.7-6.7l-3 10.8" stroke-width="3.1"/><path d="M-598.6-281.2l-5.3 18.6" stroke-width="6.3"/><path d="M-584-277l-3 10.8m17.8-6.6l-3 11m17.7-6.7l-3 10.8" stroke-width="3.1"/><path d="M-539.8-264.3l-5.4 18.7" stroke-width="6.3"/><path d="M-525-260l-3.2 10.8m17.8-6.6l-3 11m17.7-6.7l-3 10.8" stroke-width="3.1"/><path d="M-481-247.3l-5.4 18.6m-364 86l18.7 5.3" stroke-width="6.3"/><path d="M-846-157.5l10.7 3.2m-6.7-18l11 3.3m-6.7-18l11 3.3" stroke-width="3.1"/><path d="M-833.4-201.6l18.6 5.4" stroke-width="6.3"/><path d="M-829.2-216.2l11 3M-825-231l11 3.2m-6.7-17.8l11 3" stroke-width="3.1"/><path d="M-816.4-260.3l18.6 5.4" stroke-width="6.3"/><path d="M-812.2-275l11 3" stroke-width="3.1"/></g><path fill="#f6be1a" d="M-767.8-300c-3.6-1-6.5-2-6.5-2l-7 24.6v.3L-825-127l-1.8 6.5 24.6 7c3.5 1 7.2-1 8.3-4.5l42-144.2 261 75.5c3.5 1 7.2-1 8.2-4.6l7-24.8-6.4-1.8z"/><path d="M-808-289.7l11 3m-6.7-17.7l11 3" stroke="#000" stroke-width="3.1" fill="none"/><path d="M-799.4-319l22 6.3" stroke="#000" stroke-width="6.8" fill="none"/><g stroke-linejoin="round" stroke="#000" stroke-linecap="round"><path d="M-732.2 165.3c15.2 28 5 63-23.2 78.3s-63 5-78.3-23c-14.2-26-37.7-97.4-11.2-123.5 2-2 5-3.6 7.8-5 3-1.6 5.4-2.5 8.7-3 33-3.5 82.5 51 96.4 76.4z" stroke-width="1.7" fill="#f9f9f9"/><path d="M-798.8 163.8c-20.5-36.5-38.5-72-38.5-72 3-1.5 5.4-2.4 8.7-2.7 17.8-2 40.4 13 59.5 31-2.4 18-13 34.6-30 44z" stroke-width="2" fill="#ccc"/><path d="M-799.4 163.8l-38-72c-3 1.6-7.4 4.7-9.5 7.2-11 14-11 40.8-6 66.7 16 7.8 36.7 7.4 53.8-2z" stroke-width="2" fill="#ececec"/></g><path fill="#999" d="M-852 167.3s6.2 2.7 12 3.7c19 54 34.5 62.2 84 71.8-28 15.3-61.6 5.3-77-22.6-6-11.4-14.2-31.6-19-53m-.2-2.2c-5.3-26-6-53.4 8-67.3-2.5 5-9 37 3.6 71.3-1.2-.2-10-2.8-11.6-4z"/><path d="M-844.5 83.8l4-2c1-.4 2.3 0 2.8 1l3 5.4c.4 1 0 2.2-1 2.7l-4 2c-1 .3-2.4 0-3-1l-2.7-5.6c-.6-1-.2-2.2 1-2.7z"/></g></svg>