<svg xmlns="http://www.w3.org/2000/svg" width="48.564" height="48.558" viewBox="0 0 45.528972 45.522874"><path d="M16.97 24.568h5.554c-.956-3.252-1.897-6.258-2.824-9.313-.9 3.066-1.81 6.06-2.73 9.313zM44.487 0H.683c-.79 0-.677.172-.677.934v43.86c0 .76-.113.73.622.73H44.54c.735 0 .99.03.99-.732V.99c0-.818-.255-.99-1.044-.99zM27.572 34.323c-.59 0-1.185-.048-1.774-.01-.424.032-.566-.147-.68-.515-.546-1.782-1.127-3.563-1.675-5.344-.11-.358-.267-.49-.656-.484-1.995.023-3.992.02-5.988 0-.42-.01-.614.107-.734.524-.508 1.772-1.063 3.53-1.577 5.3-.112.383-.28.517-.688.506-1.2-.03-2.4-.01-3.712-.01.346-1.1.66-2.12.986-3.132 1.992-6.214 3.99-12.428 5.968-18.646.138-.434.33-.567.775-.557 1.403.03 2.808.01 4.213 0 .262 0 .442.014.538.312 2.35 7.268 4.71 14.58 7.066 21.848.01.033 0 .207.01.207h-2.072zm7.48 0h-4.336V18.065h4.336v16.258zm-2.295-18.45c-1.324 0-2.272-.915-2.28-2.194-.01-1.278.977-2.227 2.314-2.228 1.347 0 2.297.916 2.307 2.23.01 1.28-.963 2.192-2.34 2.19z" clip-rule="evenodd" fill="#faa625" fill-rule="evenodd"/></svg>