<svg xmlns="http://www.w3.org/2000/svg" width="48.808" height="48.182" viewBox="0 0 45.757669 45.170322"><path d="M37.283 36.655c-1.913 1.726.225 3.49 2.1 2.363.413-.45 0-1.95-2.1-2.363zM9.603 39.43c1.5 1.276 3.825-.337 4.5-2.137-1.463-1.913-6.864.075-4.5 2.138zm28.468-4.538c0 .863 6.302 1.426 6.302-.187-.9-2.626-5.55-2.476-6.3.187zm5.852-15.416L26.406 1.546c-2.138-2.062-5.702-2.062-7.727 0L1.762 18.84c-5.702 7.088 3.9 6.263 7.99 8.288 1.462 1.5-5.665 2.626-4.165 4.126 1.463 1.5 8.927 2.888 10.39 4.426l-1.538 4.614c1.463 1.5 4.877.075 5.514 3.563.45 2.475 6.152 1.05 8.927-.975 1.464-1.5-2.812-1.35-1.35-2.89 3.677-3.75 7.09-1.35 8.328-5.137.637-1.876-5.4-2.85-3.94-4.39 4.277-2.437 18.943-4.05 12.004-10.99zM22.917 31.14c-1.8.49-10.502-3.074-8.327-3.074.45.262 7.277 1.65 8.965 1.95.6.113.188.713-.638 1.125zm9.415-19.315l-3.3-2.664-.638 3.94-2.776-1.463-4.426 2.813-1.463-5.814-2.44 4.2h-3.637c-1.5 0-1.65-1.987-.3-3.337 2.363-2.552 5.063-5.177 6.526-6.678 1.462-1.5 4.05-1.5 5.513-.037l6.676 6.79c.637.637.637 1.875.262 2.25z"/></svg>