<svg xmlns="http://www.w3.org/2000/svg" width="48.75" height="48.75" viewBox="0 0 45.702991 45.703"><path d="M0 0v45.703h45.703V0H0zm24.175 38.944c-.675 1.37-1.963 2.27-3.455 2.705-2.292.526-4.486.226-6.117-.753-1.092-.67-1.944-1.7-2.523-2.89l3.48-2.13c.03.012.122.178.245.39.443.745.826 1.27 1.58 1.64.738.253 2.36.414 2.988-.886.382-.66.26-2.788.26-5.142 0-3.698.018-7.38.018-11.037h4.282c0 4.023.022 7.832 0 11.756.01 2.406.218 4.55-.757 6.347zm17.76-1.21c-1.49 5.09-9.785 5.256-13.1 1.893-.7-.792-1.14-1.205-1.558-2.12 1.762-1.012 1.762-1.012 3.476-2.004.932 1.432 1.793 2.22 3.342 2.54 2.1.258 4.215-.464 3.742-2.697-.488-1.823-4.304-2.266-6.9-4.215-2.637-1.77-3.255-6.073-1.088-8.532.72-.91 1.952-1.588 3.244-1.914l1.35-.174c2.588-.052 4.206.632 5.394 1.958.33.335.6.696 1.105 1.48-1.38.878-1.374.87-3.35 2.15-.422-.91-1.123-1.48-1.862-1.73-1.148-.347-2.597.03-2.897 1.245-.104.374-.083.722.083 1.34.465 1.06 2.027 1.523 3.428 2.167 4.034 1.636 5.396 3.39 5.73 5.477.323 1.798-.077 2.964-.138 3.138z" fill="#f0db4f"/></svg>