<svg xmlns="http://www.w3.org/2000/svg" width="48.499" height="48.4" viewBox="0 0 45.467801 45.374799"><path d="M17.77 14.655c-1.33-.334-2.66-.227-4.064-.01 0 2.455-.01 4.845.014 7.235 0 .122.184.335.303.35 1.532.208 3.054.225 4.486-.473 1.48-.722 2.235-2.23 2.04-4.003-.18-1.613-1.134-2.687-2.78-3.1zm27.693 8.063V.824c0-.755.01-.824-.726-.824H.894C.18 0 0 .07 0 .79V44.63c0 .728.09.73.797.73 14.633 0 29.31 0 43.943.013.567 0 .72-.15.718-.707-.02-7.316.01-14.633.01-21.95zm-25.49 2.107c-2.006.716-4.097.756-6.262.587v8.144H9.743v-.506c0-6.817-.032-13.634-.05-20.452 0-.566.087-.84.724-.904 3.007-.308 5.996-.653 8.986.048 3.213.753 5.066 2.877 5.207 5.813.173 3.635-1.424 6.124-4.638 7.27zm15.987 4.602c-.153 2.082-1.327 3.45-3.253 4.11-2.577.885-5.14.68-7.658-.32-.414-.165-.493-.373-.357-.793.248-.768.43-1.556.62-2.27 1.065.314 2.078.704 3.127.888.74.13 1.54.054 2.293-.064.675-.106 1.16-.564 1.272-1.29.113-.735-.11-1.373-.76-1.765-.516-.31-1.086-.534-1.63-.795-.88-.42-1.815-.748-2.625-1.273-3.186-2.067-2.15-5.912-.023-7.36 1.14-.774 2.397-1.117 3.745-1.164 1.585-.055 3.11.22 4.61.947l-.79 2.81c-.63-.222-1.214-.51-1.83-.625-.732-.137-1.5-.213-2.24-.152-.99.08-1.57.765-1.57 1.612 0 .503.19.928.61 1.17.6.35 1.238.64 1.87.932.684.316 1.407.56 2.065.92 1.758.964 2.672 2.454 2.523 4.483z" clip-rule="evenodd" fill="#80b5e2" fill-rule="evenodd"/></svg>