<svg xmlns="http://www.w3.org/2000/svg" height="360.5" width="360.5" viewBox="0 0 360.49747 360.49747"><path d="M337.2 1.2L232.6 55.8V229c0 7 0 15.2-2.4 22.2-1 7-3.4 14-5.8 19.7-1 1-1 3.4-2.3 4.6-3.4 0-29-8-40.6-16.3-4.6-3.5-9.3-7-14-11.6s-8-9.3-11.6-14-7-10.4-9.3-16.2-4.6-11.7-5.8-18.7c-1.2-5.8-1.2-12.7-1.2-18.6V14L116.3 0 0 68.6V228C0 301 59.3 360.4 131.4 360.4c24.4 0 46.5-5.8 66.3-17.5l97.7-55.8c38.3-19.7 65-60.4 65-105.8V15L337.3 1.3zm-129 303.5c-10.5 10.4-18.7 16.3-30.3 22-7 2.4-15.2 6-22.2 8.2-7 1-14 2.2-21 2.2s-18.5-1-25.5-2.3-14-3.6-19.8-6-12.8-5.7-18.6-10.4c-15.2-10.4-22.2-19.7-29-29-3.6-6-7-11.7-10.6-18.7-2.3-7-4.7-12.8-5.8-19.8-2.4-8.2-2.4-16.3-2.4-23.3V82.5l93-54.7V180c0 58.2 43 106 97.8 117.5-2.4 2.3-3.5 4.6-6 7zM336 200c-1.3 5.8-3.6 11.6-6 17.5s-7 14-11.6 19.7c-7 8.2-14 14-31.4 24.4-15 8.2-28 10.5-36 12.8 5.8-14 5.8-29 5.8-45.3L255.8 70l81.4-43v154.6c0 5.8 0 12.8-1 18.6z" fill="#02b3e4"/></svg>